<?xml version="1.0" encoding="utf-8"?>
<!-- Generator: Adobe Illustrator 25.2.3, SVG Export Plug-In . SVG Version: 6.00 Build 0)  -->
<svg version="1.1" id="Laag_1" xmlns="http://www.w3.org/2000/svg" xmlns:xlink="http://www.w3.org/1999/xlink" x="0px" y="0px"
	 viewBox="0 0 595.28 841.89" style="enable-background:new 0 0 595.28 841.89;" xml:space="preserve">
<style type="text/css">
	.st0{fill:#F3E600;stroke:#010202;stroke-miterlimit:10;}
	.st1{fill:#FFFFFF;stroke:#010202;stroke-miterlimit:10;}
	.st2{font-family:'ArialRoundedMTBold';}
	.st3{font-size:20.7987px;}
	.st4{font-size:20px;}
	.st5{font-family:'MinionPro-Regular';}
	.st6{font-size:12px;}
	.st7{fill:none;stroke:#010202;stroke-miterlimit:10;}
</style>
<g>
	<path class="st0" d="M467.99,425.55c-0.55-23.7-9.39-48.1-10.18-50.24c-0.01-0.04-0.03-0.09-0.04-0.13l0,0l-0.01-0.03l0,0
		c-6.07-16.82-23.09-39.35-26.09-43.25c-3.39-19.08-16.25-25.2-17.78-25.86l-0.06-0.03l0,0c-0.06-0.02-0.09-0.04-0.09-0.04l0,0.01
		c-25.32-11.56-37.54,2.37-38.95,4.13c-0.11,0.13-0.21,0.26-0.31,0.41l0,0c-9.82,16.17-9.03,23.78-3.16,28.26
		c3.42,2.61,8.45,3.68,14.02,4.87c1.39,0.3,2.82,0.6,4.26,0.94c0.08,0.03,0.17,0.05,0.25,0.07l0-0.01
		c7.68,1.55,15.07-2.59,18.49-4.93c4.89,7.1,7.16,19.19,7.55,21.41l-1.72,28.53c-9.45-7.04-18.28-4.36-25.63-2.12
		c-4.38,1.33-8.11,2.46-10.26,0.64c-0.11-0.12-0.24-0.24-0.38-0.34l0,0.01c-1.92-1.42-3.8-2.7-5.67-3.88
		c-19.68-60.79-81.24-55.1-81.24-55.1c-39.27,3.18-59.05,26.38-68.46,54.06c-2.7,1.44-5.45,3.07-8.25,4.92l0-0.01
		c-0.15,0.1-0.29,0.22-0.42,0.34c-2.41,1.82-6.59,0.69-11.5-0.64c-8.24-2.23-18.13-4.92-28.73,2.12l-1.93-28.53
		c0.43-2.22,2.98-14.31,8.46-21.41c3.84,2.35,12.12,6.48,20.73,4.93l0,0.01c0.1-0.02,0.19-0.04,0.28-0.07
		c1.61-0.34,3.21-0.64,4.78-0.94c6.24-1.19,11.89-2.26,15.72-4.87c6.58-4.48,7.46-12.09-3.54-28.26l0.01,0
		c-0.1-0.15-0.22-0.29-0.34-0.41c-1.58-1.76-15.27-15.69-43.65-4.13l0-0.01c0,0-0.04,0.01-0.1,0.04l0,0l-0.07,0.03
		c-1.71,0.67-16.13,6.78-19.93,25.86c-3.36,3.9-22.44,26.42-29.24,43.25l0,0l-0.01,0.03l0,0c-0.02,0.04-0.03,0.09-0.05,0.13
		c-0.89,2.14-10.79,26.54-11.41,50.24l-0.01,0c-0.02,0.83,0.31,1.58,0.85,2.12c12.9,14.3,32.34,25.71,52.89,30.87
		c16.97,4.26,34.74,4.27,50.31-1.84c5.75,13.49,21.25,20.73,35.39,14.53l38.93-17.07c3.09-1.35,6.57-1.33,9.65,0.06l34.29,15.55
		c14.81,6.71,31.11-0.09,38.24-13.68c14.2,6.71,30.57,6.86,46.19,2.46c18.33-5.16,35.67-16.57,47.18-30.87
		C467.72,427.13,468.02,426.38,467.99,425.55L467.99,425.55z M270.42,440.43c0,0-16.29,7.62-29.41-3.81
		C241.01,436.62,261.88,418.17,270.42,440.43z M351.24,434.57c-13.68,12.85-31.87,5.82-31.87,5.82c8.11-23.98,31.1-5.17,31.1-5.17
		L351.24,434.57z"/>
	<path class="st1" d="M241.01,436.62c13.11,11.43,29.41,3.81,29.41,3.81C261.88,418.17,241.01,436.62,241.01,436.62z"/>
	<path class="st1" d="M319.37,440.38c0,0,18.19,7.03,31.87-5.82l-0.77,0.65C350.47,435.21,327.48,416.4,319.37,440.38z"/>
</g>
<text transform="matrix(1 0 0 1 234.2598 496.3389)" class="st2 st3">INVINCIBLE</text>
<text transform="matrix(1 0 0 1 349.3533 495.1887)" class="st2 st4"> </text>
<text transform="matrix(1 0 0 1 231.8127 509.5891)" class="st5 st6"> </text>
<path class="st7" d="M241.01,420.95c0,0,13.11-7.41,29.41,0"/>
<path class="st7" d="M320.6,422.59c0,0,13.11-7.41,29.41,0"/>
</svg>
